# xmcd
#
# Track frame offsets:
#	150
#	10820
#	25265
#	37050
#	53085
#	66635
#	76957
#	92595
#	105132
#	117852
#	131150
#	141570
#	159557
#	171972
#	181670
#	194430
#	203417
#	218030
#	231392
#	244732
#
# Disc length: 3497
#
# Revision: 2
# Processed by: cddbd v1.5.1PL0 Copyright (c) Steve Scherf et al.
# Submitted via: VisiTrax 2.9.5.181 - For more info visit www.synapsa.com
# Normalized: r1:DSETVAR1
#
DISCID=150da714
DTITLE=Various Artist - On The Road Again - 20 Great Truck Drivin' Hits
DYEAR=1986
DGENRE=Country
TTITLE0=Dave Dudley - Six Days On The Road
TTITLE1=Red Simpson - I'm A Truck
TTITLE2=Willis Brothers - Give Me Forty Acres
TTITLE3=Rod Hart - C.B. Savage
TTITLE4=Tiny Harris - Endless Black Ribbon
TTITLE5=Duane Eddy - 40 Miles Of Bad Road
TTITLE6=George Morgan - Man Behind The Wheel
TTITLE7=Claude Gray - How Fast Them Trucks Can Go
TTITLE8=Jimmy Martin - Widow Maker
TTITLE9=Jack Greene - California Turn Arounds
TTITLE10=Del Reeves - Looking At The World Thru A Windshield
TTITLE11=Johnny Bond and Red Sovine - Gear Jammer and The Hobo
TTITLE12=Red Simpson - Roll, Truck, Roll
TTITLE13=Moore and Napier - Truck Driver's Queen
TTITLE14=Coleman Wilson - Passing Zone Blues
TTITLE15=Willis Brothers - Truck Stop Cutie
TTITLE16=Charlie Douglas and Dave Dudley - Wheres The Truck
TTITLE17=Dave Dudley - Rolaids, Doan's Pills and Preparation H
TTITLE18=Red Sovine and Jean Shepard - Jackson
TTITLE19=Tommy Hill Music Festival - Convoy
EXTD=
EXTT0=
EXTT1=
EXTT2=
EXTT3=
EXTT4=
EXTT5=
EXTT6=
EXTT7=
EXTT8=
EXTT9=
EXTT10=
EXTT11=
EXTT12=
EXTT13=
EXTT14=
EXTT15=
EXTT16=
EXTT17=
EXTT18=
EXTT19=
PLAYORDER=
